<svg width="169" height="83" viewBox="0 0 169 83" fill="none" xmlns="http://www.w3.org/2000/svg">
<path d="M10.6879 20.1081C11.8356 13.3541 17.4748 8.27455 24.3116 7.83638L135.489 0.710935C142.059 0.289884 148.115 4.2652 150.341 10.4603L162.738 44.9529C165.945 53.8779 160.035 63.4712 150.621 64.62L19.6807 80.5984C9.86488 81.7962 1.665 73.2024 3.32172 63.4536L10.6879 20.1081Z" fill="#FF5B79"/>
<path d="M49.1923 40.9099C49.1923 41.7949 48.5923 42.2899 47.5723 42.2899H45.4573V39.4699H47.5273C48.5473 39.4699 49.1923 40.0099 49.1923 40.9099ZM48.9373 36.5449C48.9373 37.3999 48.3673 37.8499 47.3773 37.8499H45.4573V35.2249H47.3773C48.3673 35.2249 48.9373 35.7049 48.9373 36.5449ZM51.3223 41.1649C51.3223 39.9349 50.4823 38.8399 49.2973 38.6299C50.3173 38.2999 51.0823 37.5049 51.0823 36.2299C51.0823 34.6699 49.8673 33.5299 47.6773 33.5299H43.3573V43.9999H47.8723C50.0473 43.9999 51.3223 42.8299 51.3223 41.1649ZM61.0209 39.8449C61.0209 37.2199 59.1459 35.5549 56.7459 35.5549C54.3459 35.5549 52.4709 37.2199 52.4709 39.8449C52.4709 42.4549 54.2859 44.1349 56.6859 44.1349C59.1009 44.1349 61.0209 42.4549 61.0209 39.8449ZM54.6009 39.8449C54.6009 38.1799 55.6059 37.3849 56.7159 37.3849C57.8259 37.3849 58.8609 38.1799 58.8609 39.8449C58.8609 41.4949 57.7959 42.3049 56.6859 42.3049C55.5609 42.3049 54.6009 41.4949 54.6009 39.8449ZM70.5864 39.8449C70.5864 37.2199 68.7114 35.5549 66.3114 35.5549C63.9114 35.5549 62.0364 37.2199 62.0364 39.8449C62.0364 42.4549 63.8514 44.1349 66.2514 44.1349C68.6664 44.1349 70.5864 42.4549 70.5864 39.8449ZM64.1664 39.8449C64.1664 38.1799 65.1714 37.3849 66.2814 37.3849C67.3914 37.3849 68.4264 38.1799 68.4264 39.8449C68.4264 41.4949 67.3614 42.3049 66.2514 42.3049C65.1264 42.3049 64.1664 41.4949 64.1664 39.8449ZM72.1268 43.9999H74.2268V40.4599L77.0468 43.9999H79.7768L76.0868 39.8599L79.7468 35.6899H77.0168L74.2268 39.2149V32.8999H72.1268V43.9999ZM91.3158 33.5149V40.7149L86.5608 33.5149H84.4608V43.9999H86.5608V36.8149L91.3158 43.9999H93.4158V33.5149H91.3158ZM103.516 39.8449C103.516 37.2199 101.641 35.5549 99.2411 35.5549C96.8411 35.5549 94.9661 37.2199 94.9661 39.8449C94.9661 42.4549 96.7811 44.1349 99.1811 44.1349C101.596 44.1349 103.516 42.4549 103.516 39.8449ZM97.0961 39.8449C97.0961 38.1799 98.1011 37.3849 99.2111 37.3849C100.321 37.3849 101.356 38.1799 101.356 39.8449C101.356 41.4949 100.291 42.3049 99.1811 42.3049C98.0561 42.3049 97.0961 41.4949 97.0961 39.8449ZM106.571 43.9999H108.851L110.366 38.1949L111.881 43.9999H114.146L116.576 35.6899H114.566L113.096 42.0049L111.536 35.6899H109.316L107.726 42.0199L106.256 35.6899H104.126L106.571 43.9999Z" fill="white"/>
</svg>
